# xmcd
#
# Track frame offsets:
#	150
#	16484
#	29057
#	47304
#	60126
#	76672
#	89882
#	105088
#	118206
#	129115
#	139862
#	154295
#
# Disc length: 2222 seconds
# Revision: 0
# Processed by: cddbd v1.5.2PL0 Copyright (c) Steve Scherf et al.
# Submitted via: dBpowerAMP V12.0
#
DISCID=8f08ac0c
DTITLE=Scot Brannon - Your Old Standby
DYEAR=2012
DGENRE=Country
TTITLE0=Wedding Bells
TTITLE1=Georgia Bound
TTITLE2=Your Old Standby
TTITLE3=Your Tears are Just Interest on the Loan
TTITLE4=Cold November Rain
TTITLE5=Singing Waterfall
TTITLE6=I Still Miss Someone
TTITLE7=Mountain Church
TTITLE8=My Dear One
TTITLE9=If I Lose
TTITLE10=I Overlooked an Orchid
TTITLE11=Sing Sing Sing
EXTD=
EXTT0=
EXTT1=
EXTT2=
EXTT3=
EXTT4=
EXTT5=
EXTT6=
EXTT7=
EXTT8=
EXTT9=
EXTT10=
EXTT11=
PLAYORDER=
